<svg width="18" height="12" viewBox="0 0 18 12" fill="none" xmlns="http://www.w3.org/2000/svg">
<path d="M7.87053 11.21L0.676527 2.987C-0.172472 2.018 0.517529 0.500001 1.80603 0.500001L16.194 0.500001C16.4824 0.499753 16.7647 0.582632 17.0072 0.738711C17.2497 0.894791 17.442 1.11746 17.5612 1.38004C17.6804 1.64262 17.7214 1.934 17.6792 2.21927C17.637 2.50454 17.5136 2.77161 17.3235 2.9885L10.1295 11.2085C9.98873 11.3696 9.8151 11.4987 9.62029 11.5872C9.42548 11.6757 9.21399 11.7215 9.00003 11.7215C8.78606 11.7215 8.57458 11.6757 8.37976 11.5872C8.18495 11.4987 8.01132 11.3696 7.87053 11.2085V11.21Z" fill="white"/>
</svg>
