<svg width="31" height="28" viewBox="0 0 31 28" fill="none" xmlns="http://www.w3.org/2000/svg">
<path fill-rule="evenodd" clip-rule="evenodd" d="M3.9998 24.9996V11.9996H5.9998V24.9996C5.9998 25.2649 6.10515 25.5192 6.29269 25.7067C6.48023 25.8943 6.73458 25.9996 6.9998 25.9996H24.9998C25.265 25.9996 25.5194 25.8943 25.7069 25.7067C25.8944 25.5192 25.9998 25.2649 25.9998 24.9996V11.9996H27.9998V24.9996C27.9998 25.7953 27.6837 26.5583 27.1211 27.121C26.5585 27.6836 25.7954 27.9996 24.9998 27.9996H6.9998C6.20415 27.9996 5.44109 27.6836 4.87848 27.121C4.31587 26.5583 3.9998 25.7953 3.9998 24.9996ZM25.9998 2.99964V9.99964L21.9998 5.99964V2.99964C21.9998 2.73442 22.1052 2.48007 22.2927 2.29253C22.4802 2.10499 22.7346 1.99964 22.9998 1.99964H24.9998C25.265 1.99964 25.5194 2.10499 25.7069 2.29253C25.8944 2.48007 25.9998 2.73442 25.9998 2.99964Z" fill="white"/>
<path fill-rule="evenodd" clip-rule="evenodd" d="M14.5858 0.999635C14.9609 0.624693 15.4695 0.414062 15.9998 0.414062C16.5301 0.414062 17.0387 0.624693 17.4138 0.999635L30.7078 14.2916C30.8956 14.4794 31.0011 14.7341 31.0011 14.9996C31.0011 15.2652 30.8956 15.5199 30.7078 15.7076C30.52 15.8954 30.2653 16.0009 29.9998 16.0009C29.7342 16.0009 29.4796 15.8954 29.2918 15.7076L15.9998 2.41364L2.7078 15.7076C2.52003 15.8954 2.26535 16.0009 1.9998 16.0009C1.73425 16.0009 1.47957 15.8954 1.2918 15.7076C1.10403 15.5199 0.998535 15.2652 0.998535 14.9996C0.998535 14.7341 1.10403 14.4794 1.2918 14.2916L14.5858 0.999635Z" fill="white"/>
</svg>
